<?xml version="1.0" standalone="no"?>
<!DOCTYPE svg PUBLIC "-//W3C//DTD SVG 20010904//EN"
 "http://www.w3.org/TR/2001/REC-SVG-20010904/DTD/svg10.dtd">
<svg version="1.0" xmlns="http://www.w3.org/2000/svg"
 width="460.000000pt" height="460.000000pt" viewBox="0 0 460.000000 460.000000"
 preserveAspectRatio="xMidYMid meet">
<metadata>
Created by potrace 1.14, written by Peter Selinger 2001-2017
</metadata>
<g transform="translate(0.000000,460.000000) scale(0.100000,-0.100000)"
fill="#000000" stroke="none">
<path d="M1496 4575 c4 -23 1 -25 -31 -25 l-35 0 0 -60 0 -60 34 0 c30 0 33
-3 32 -27 -1 -23 4 -29 27 -31 21 -3 27 -9 27 -28 0 -20 5 -24 30 -24 28 0 30
-3 30 -36 0 -28 -3 -35 -15 -30 -33 12 -45 -4 -45 -60 l0 -54 55 0 c52 0 55
-1 55 -25 0 -20 -5 -25 -25 -25 -22 0 -25 -4 -25 -34 0 -30 -3 -33 -27 -32
l-28 1 0 -115 0 -115 28 2 c24 2 27 -1 27 -27 0 -25 4 -30 25 -30 21 0 25 -5
25 -30 0 -25 -4 -30 -25 -30 -25 0 -26 -2 -23 -57 3 -53 5 -58 26 -57 18 1 22
-4 22 -27 0 -29 1 -29 60 -29 l60 0 0 -30 c0 -27 3 -30 30 -30 25 0 30 -4 30
-25 0 -20 5 -25 25 -25 24 0 25 -3 25 -59 l0 -60 32 -3 c32 -3 33 -4 33 -53 1
-47 2 -50 28 -53 23 -3 27 -8 27 -36 0 -31 2 -33 30 -31 27 2 30 0 30 -26 0
-24 4 -29 25 -29 21 0 25 -5 25 -30 0 -27 3 -30 34 -30 28 0 33 -3 32 -22 -1
-18 5 -24 27 -26 23 -3 27 -8 27 -37 0 -27 -3 -33 -18 -30 -30 5 -38 -7 -37
-60 0 -49 -1 -50 -32 -53 l-33 -3 0 -58 c0 -54 -1 -57 -25 -57 -22 0 -25 4
-25 33 l0 33 -60 0 c-59 0 -60 1 -56 25 5 24 3 25 -54 25 l-59 0 -3 58 c-3 55
-4 57 -30 56 -25 0 -28 3 -28 33 0 30 -3 33 -29 33 -23 0 -28 4 -27 23 1 20
-4 22 -56 25 -57 3 -58 4 -58 32 0 26 -4 30 -29 30 -25 0 -30 4 -33 28 -2 15
-9 27 -18 28 -8 1 -20 2 -26 2 -7 1 -11 22 -10 55 1 52 1 52 -31 55 l-33 3 0
90 c0 88 0 89 -25 89 l-25 0 0 115 0 115 -30 0 -30 0 0 115 0 115 30 0 29 0 3
83 c2 56 7 82 16 83 6 1 17 2 22 3 6 0 10 26 10 56 0 52 -1 55 -25 55 -21 0
-25 5 -25 30 0 30 0 30 -58 30 -57 0 -58 -1 -58 -27 1 -24 -3 -28 -31 -31 -27
-3 -33 -7 -33 -28 0 -19 -5 -24 -25 -24 -24 0 -25 -3 -25 -60 l0 -60 -30 0
c-27 0 -30 -3 -30 -30 l0 -30 -60 0 -60 0 0 30 0 30 -80 0 c-82 0 -83 -1 -83
-42 0 -14 -8 -18 -33 -18 -30 0 -34 -3 -34 -25 0 -24 -3 -25 -55 -25 l-55 0 0
-34 c0 -30 -3 -34 -25 -32 -25 3 -43 -23 -30 -44 4 -6 -8 -10 -29 -10 -33 0
-36 -2 -36 -30 0 -25 -4 -30 -25 -30 -20 0 -25 -5 -25 -25 0 -22 -4 -24 -57
-27 -52 -3 -58 -5 -59 -25 -1 -13 -2 -27 -3 -31 0 -4 -13 -8 -29 -8 l-27 1 -5
-115 c-5 -107 -6 -115 -25 -115 -17 0 -20 -8 -23 -57 -3 -57 -4 -58 -32 -58
-30 0 -30 0 -30 -61 0 -50 -3 -60 -15 -55 -25 9 -42 -4 -39 -30 2 -21 -2 -24
-32 -24 l-34 0 0 -144 0 -145 33 -3 c32 -3 32 -3 32 -58 0 -54 1 -55 28 -53
27 2 27 1 27 -57 0 -60 0 -60 30 -60 l30 0 0 -61 c0 -50 -3 -60 -15 -55 -33
12 -45 -4 -45 -60 0 -53 0 -54 30 -54 25 0 30 -4 30 -25 0 -20 5 -25 25 -25
22 0 25 -4 25 -33 0 -31 2 -34 30 -32 17 1 31 -1 31 -4 10 -44 6 -51 -27 -51
-31 0 -34 -3 -34 -30 0 -25 -4 -30 -25 -30 -24 0 -25 -3 -25 -59 0 -57 0 -58
-27 -57 -23 1 -29 -4 -31 -26 -3 -23 -8 -28 -31 -28 -26 0 -27 -2 -26 -53 1
-49 2 -52 27 -55 22 -3 27 -9 30 -35 3 -32 4 -32 56 -32 50 1 52 0 52 -27 l0
-28 89 0 90 0 3 27 c3 25 6 27 56 29 28 0 52 -2 53 -5 0 -3 2 -16 5 -28 3 -20
0 -23 -31 -23 -32 0 -35 -2 -35 -30 0 -25 -4 -30 -25 -30 -25 0 -26 -2 -23
-57 3 -53 5 -58 25 -57 19 1 23 -4 23 -27 0 -26 3 -29 33 -29 32 0 33 -1 32
-43 -2 -63 1 -67 60 -67 53 0 54 0 57 -32 l3 -33 80 0 80 0 3 58 c3 57 3 57
-26 57 -25 0 -29 4 -27 28 1 26 4 27 58 30 l57 3 0 -31 0 -30 59 0 59 0 -3 30
c-2 27 0 30 26 30 l29 0 0 115 0 115 30 0 c26 0 30 3 30 29 0 23 4 28 23 27
21 -1 22 3 25 87 l3 87 59 0 c60 0 60 0 60 -30 0 -27 3 -30 30 -30 25 0 30 -4
30 -25 0 -21 -5 -25 -30 -25 -30 0 -30 0 -30 -59 0 -58 -1 -60 -27 -63 -28 -3
-28 -4 -29 -78 -2 -105 -1 -101 -31 -98 -27 3 -28 2 -31 -54 -3 -54 -5 -58
-27 -58 -20 0 -25 -5 -25 -25 0 -21 -5 -25 -30 -25 -28 0 -30 -3 -30 -36 0
-28 -3 -35 -15 -30 -32 12 -42 -3 -40 -59 l2 -55 -33 0 -34 0 0 -85 c0 -84 0
-85 -25 -85 l-25 0 0 -145 0 -145 25 0 c22 0 24 -4 27 -57 3 -55 4 -58 28 -57
28 2 40 -11 35 -38 -3 -14 2 -18 26 -18 26 0 29 -3 29 -30 0 -27 3 -30 30 -30
25 0 30 -4 30 -25 0 -21 -5 -25 -30 -25 -27 0 -30 -3 -30 -34 0 -30 -3 -33
-27 -32 -27 1 -28 0 -28 -54 0 -52 2 -55 28 -58 21 -3 27 -9 27 -28 0 -24 1
-24 89 -24 l90 0 -5 25 c-4 22 -1 25 26 25 25 0 30 -4 30 -25 0 -25 1 -25 89
-25 88 0 88 0 86 25 -3 25 -3 25 81 25 l84 0 0 29 c0 26 4 30 33 33 32 3 32 3
32 58 0 55 0 55 -33 58 -32 3 -32 4 -32 58 0 51 -1 54 -25 54 -21 0 -25 5 -25
30 0 27 3 30 25 26 23 -4 25 -2 25 30 l0 34 115 0 115 0 0 -29 c0 -36 6 -38
103 -36 l77 1 0 -28 0 -28 85 0 85 0 0 -30 0 -30 204 0 204 0 -3 30 c-2 27 0
30 26 30 26 0 29 -4 29 -30 0 -27 3 -30 30 -30 25 0 30 -4 30 -25 0 -20 5 -25
25 -25 l25 0 0 -114 0 -115 33 -3 c24 -2 32 -8 32 -23 0 -34 12 -42 65 -40 49
1 50 1 50 -27 0 -23 4 -28 25 -28 21 0 25 -5 25 -30 l0 -30 60 0 60 0 0 58 c0
58 0 59 28 57 22 -1 28 -6 30 -28 3 -21 9 -27 28 -27 20 0 24 -5 24 -30 l0
-30 60 0 60 0 0 30 0 30 88 0 88 0 -1 83 0 82 -33 3 -32 3 0 115 0 114 -25 0
-25 0 0 115 0 115 -30 0 c-27 0 -30 3 -30 30 0 27 3 30 30 30 26 0 30 4 30 28
0 28 1 29 55 27 32 -1 55 3 56 9 1 6 1 21 2 34 0 20 4 22 58 22 56 0 59 1 59
25 0 20 5 25 25 25 21 0 25 5 25 29 0 26 4 30 33 33 27 2 32 7 32 28 0 20 5
25 25 25 21 0 26 5 28 33 3 28 7 32 33 32 24 0 29 4 29 25 0 20 5 25 25 25 22
0 24 4 27 58 3 49 6 57 23 58 11 1 25 2 31 3 7 0 11 22 9 56 -2 54 -1 55 27
55 l28 0 -2 172 c-3 172 -3 173 -25 172 -25 -2 -25 -3 -27 101 l-1 70 -32 3
-33 3 0 60 c0 56 -1 59 -25 59 -24 0 -25 3 -25 55 0 54 0 55 -30 55 l-30 0 0
60 c0 60 0 60 -29 60 -25 0 -29 3 -26 25 2 22 -1 25 -31 25 -31 0 -34 3 -34
30 0 25 -4 30 -25 30 -21 0 -25 5 -25 28 0 26 -3 29 -30 27 -28 -2 -30 1 -30
32 0 30 -3 33 -29 33 -23 0 -28 4 -27 23 1 18 -5 23 -31 25 l-33 3 0 89 0 89
33 3 c26 2 32 7 31 26 -1 18 4 22 27 22 26 0 29 4 29 30 0 30 1 30 55 30 54 0
55 0 55 -30 0 -27 3 -30 34 -30 28 0 33 -3 32 -22 -1 -18 5 -24 26 -26 22 -3
27 -9 30 -35 3 -28 7 -32 31 -31 l27 1 0 -83 c0 -83 0 -84 25 -84 24 0 25 -3
25 -60 l0 -60 33 0 33 0 -1 -132 c-1 -73 1 -139 3 -145 2 -7 15 -13 28 -13 21
0 23 -5 26 -57 3 -54 4 -57 31 -58 27 -2 27 -1 27 57 0 55 1 58 25 58 24 0 25
3 25 59 0 49 3 58 18 58 47 0 48 1 48 55 -1 51 0 53 27 56 l27 3 0 319 0 319
-27 3 c-25 3 -28 7 -29 43 -2 63 -2 65 -34 65 l-30 0 0 85 c0 84 0 85 -25 85
-25 0 -25 1 -25 90 l0 90 -30 0 -29 0 -3 83 c-3 78 -4 82 -25 81 -25 -2 -25
-3 -27 101 l-1 70 -32 3 c-26 3 -32 8 -35 30 -2 21 -8 27 -25 26 -20 -1 -23 4
-23 32 l0 34 -59 0 c-54 0 -58 2 -57 23 1 21 -3 22 -86 25 l-88 3 0 29 c0 30
0 30 -59 30 -58 0 -60 1 -63 28 -3 26 -5 27 -55 26 l-53 -1 0 34 0 33 -175 0
-175 0 0 -33 0 -32 -115 0 -115 0 0 32 c0 29 -3 33 -25 33 -20 0 -25 5 -25 25
0 21 -5 25 -30 25 -27 0 -30 3 -30 29 0 25 -4 30 -27 33 -22 2 -28 8 -28 28 0
22 -4 25 -45 25 -60 2 -70 -3 -70 -31 0 -20 -5 -24 -30 -24 l-31 0 3 -87 3
-88 28 2 c27 2 27 1 27 -57 0 -57 1 -60 25 -60 22 0 24 -4 27 -57 3 -52 5 -58
26 -59 12 -1 26 -2 30 -3 6 -1 9 -418 3 -454 0 -4 -13 -6 -28 -5 l-28 3 -3
-82 c-3 -81 -3 -83 -27 -83 -22 0 -25 -5 -25 -34 0 -31 -2 -34 -30 -32 -27 1
-30 4 -30 33 l0 33 -60 0 c-57 0 -60 1 -60 25 0 24 -3 25 -55 25 -54 0 -55 0
-55 29 0 25 -4 30 -27 33 -20 2 -28 9 -28 23 1 25 -15 36 -44 30 -18 -3 -21 1
-21 31 0 30 -3 34 -25 34 -24 0 -25 3 -25 55 0 52 1 55 25 55 24 0 25 3 25 60
l0 60 60 0 c57 0 60 1 60 25 0 21 5 25 30 25 l30 0 0 90 c0 89 0 90 25 90 25
0 25 1 25 80 0 57 -4 80 -12 81 -7 1 -31 2 -53 3 -38 1 -40 3 -43 34 -3 27 -7
32 -31 32 -27 0 -27 0 -26 68 2 107 3 106 -107 93 -5 -1 -8 -12 -8 -26 0 -21
-5 -25 -30 -25 l-30 0 0 60 0 60 -60 0 c-57 0 -60 1 -60 25 0 20 -5 25 -25 25
-22 0 -24 4 -27 58 -3 53 -5 57 -28 57 -21 0 -26 5 -28 33 l-3 32 -59 0 -59 0
-3 -32 c-3 -32 -4 -33 -55 -34 l-53 0 0 58 c0 58 0 58 -29 58 -26 0 -29 -3
-25 -25z m-690 -1610 c-4 -22 -1 -25 25 -25 28 0 30 -2 27 -32 -3 -33 -3 -33
-60 -33 l-58 -1 0 58 0 58 35 0 c32 0 35 -2 31 -25z m396 -57 c2 -26 8 -33 26
-34 12 -1 27 -2 32 -3 6 0 8 -12 6 -26 -4 -22 -1 -25 25 -25 29 0 29 -1 29
-55 l0 -55 -59 0 -60 0 -3 -32 c-3 -33 -4 -33 -55 -33 l-53 -1 0 33 c0 30 -3
33 -30 33 -25 0 -29 3 -26 23 2 15 11 23 29 25 26 3 27 6 27 61 0 57 1 58 28
57 23 -1 27 3 30 32 3 26 8 32 27 32 19 0 24 -6 27 -32z m1728 -348 c0 -27 3
-30 30 -30 25 0 30 -4 30 -25 0 -20 5 -25 25 -25 22 0 25 -4 25 -33 0 -31 2
-33 33 -32 29 0 32 -3 31 -28 0 -23 4 -27 28 -27 24 0 28 -4 28 -30 0 -27 3
-30 30 -30 25 0 30 -4 30 -25 0 -20 5 -25 25 -25 24 0 25 -3 25 -60 l0 -60 33
0 34 0 -1 -52 c-1 -51 0 -53 27 -56 l27 -3 0 -114 0 -114 -27 -3 c-27 -3 -28
-5 -27 -60 l0 -58 -33 0 c-30 0 -33 -3 -33 -30 0 -25 -4 -30 -25 -30 l-25 0 0
145 0 145 -30 0 -30 0 0 115 0 115 -31 0 c-25 0 -29 3 -24 19 9 29 -14 38 -97
36 l-78 -1 0 33 0 33 -85 0 c-84 0 -85 0 -85 25 0 21 -5 25 -30 25 -27 0 -30
3 -30 29 0 25 -4 30 -27 33 -27 3 -29 8 -24 48 0 6 12 8 26 6 23 -4 25 -2 25
30 0 31 2 34 30 34 25 0 30 4 30 25 0 20 5 25 25 25 21 0 25 5 25 30 l0 30 60
0 60 0 0 -30z m-1380 -230 l0 -30 -60 0 c-57 0 -60 -1 -60 -25 0 -20 -5 -25
-25 -25 -22 0 -25 -4 -25 -33 0 -33 0 -33 -47 -31 -27 1 -53 2 -59 3 -6 1 -10
24 -10 56 l1 55 58 0 c57 0 57 0 57 30 l0 30 85 0 85 0 0 -30z m1260 -345 c0
-31 -3 -34 -22 -31 -18 2 -24 11 -26 34 -3 28 0 32 22 32 23 0 26 -4 26 -35z
m-2010 -34 c3 -1 6 -37 5 -81 l0 -80 -32 0 c-28 0 -32 -3 -35 -32 -3 -31 -4
-32 -55 -34 l-53 -1 0 88 0 89 30 0 c26 0 30 4 30 28 0 28 1 29 53 26 28 -1
54 -2 57 -3z m2130 -54 c0 -58 0 -58 -27 -55 -22 2 -28 8 -28 28 0 21 -5 26
-32 28 -27 3 -33 8 -33 26 0 31 1 31 64 31 l56 0 0 -58z"/>
</g>
</svg>
